<svg xmlns="http://www.w3.org/2000/svg" width="640" height="360" viewBox="0 0 640 360" font-family="sans-serif">
<text x="70" y="24" font-size="13" font-weight="bold">Gate survivors vs N — planted rises, real & noise flat at 0</text>
<line x1="70" y1="310.0" x2="610" y2="310.0" stroke="#ccc"/>
<text x="70.0" y="328" font-size="10" text-anchor="middle">10</text>
<text x="174.01003867394638" y="328" font-size="10" text-anchor="middle">30</text>
<text x="287.9949806156898" y="328" font-size="10" text-anchor="middle">100</text>
<text x="392.0050192896362" y="328" font-size="10" text-anchor="middle">300</text>
<text x="505.9899612313796" y="328" font-size="10" text-anchor="middle">1000</text>
<text x="609.9999999053259" y="328" font-size="10" text-anchor="middle">3000</text>
<text x="62" y="314.0" font-size="10" text-anchor="end">0.0</text>
<text x="62" y="179.0" font-size="10" text-anchor="end">77.2</text>
<text x="62" y="44.0" font-size="10" text-anchor="end">154.4</text>
<path d="M 70.0 308.8 L 174.0 306.3 L 288.0 297.6 L 392.0 275.2 L 506.0 208.0 L 610.0 40.0" fill="none" stroke="#1b7a6e" stroke-width="2"/>
<circle cx="70.0" cy="308.8" r="3" fill="#1b7a6e"/>
<circle cx="174.0" cy="306.3" r="3" fill="#1b7a6e"/>
<circle cx="288.0" cy="297.6" r="3" fill="#1b7a6e"/>
<circle cx="392.0" cy="275.2" r="3" fill="#1b7a6e"/>
<circle cx="506.0" cy="208.0" r="3" fill="#1b7a6e"/>
<circle cx="610.0" cy="40.0" r="3" fill="#1b7a6e"/>
<text x="440" y="44" font-size="11" fill="#1b7a6e">● planted (creative)</text>
<path d="M 70.0 310.0 L 174.0 310.0 L 288.0 310.0 L 392.0 310.0 L 506.0 310.0 L 610.0 310.0" fill="none" stroke="#c0612a" stroke-width="2"/>
<circle cx="70.0" cy="310.0" r="3" fill="#c0612a"/>
<circle cx="174.0" cy="310.0" r="3" fill="#c0612a"/>
<circle cx="288.0" cy="310.0" r="3" fill="#c0612a"/>
<circle cx="392.0" cy="310.0" r="3" fill="#c0612a"/>
<circle cx="506.0" cy="310.0" r="3" fill="#c0612a"/>
<circle cx="610.0" cy="310.0" r="3" fill="#c0612a"/>
<text x="440" y="60" font-size="11" fill="#c0612a">● real S&P (creative)</text>
<path d="M 70.0 310.0 L 174.0 310.0 L 288.0 310.0 L 392.0 310.0 L 506.0 310.0 L 610.0 310.0" fill="none" stroke="#3a55a0" stroke-width="2"/>
<circle cx="70.0" cy="310.0" r="3" fill="#3a55a0"/>
<circle cx="174.0" cy="310.0" r="3" fill="#3a55a0"/>
<circle cx="288.0" cy="310.0" r="3" fill="#3a55a0"/>
<circle cx="392.0" cy="310.0" r="3" fill="#3a55a0"/>
<circle cx="506.0" cy="310.0" r="3" fill="#3a55a0"/>
<circle cx="610.0" cy="310.0" r="3" fill="#3a55a0"/>
<text x="440" y="76" font-size="11" fill="#3a55a0">● noise (creative)</text>
<text x="320.0" y="348" font-size="11" text-anchor="middle">N (log)</text>
<text x="18" y="180.0" font-size="11" text-anchor="middle" transform="rotate(-90 18 180.0)">gate survivors</text>
</svg>
